# xmcd
#
# Track frame offsets:
#	150
#	13056
#	26656
#	39156
#	53518
#	68656
#	83493
#	98156
#	112531
#	126684
#	141218
#	155381
#
# Disc length: 2261 seconds
#
# Revision: 0
# Processed by: cddbd v1.5.2PL0 Copyright (c) Steve Scherf et al.
# Submitted via: EasyCDDAExtractor 16.0.8.2
#
DISCID=8b08d30c
DTITLE=Συλλογικός δίσκος - Απαγορευμένα ρεμπέτικα 2
DYEAR=1900
DGENRE=Ρεμπέτικη
TTITLE0=Περπινιάδης Στελλάκης - Σα φουμάρω τσιγαρλίκι [Βαγγ. Παπάζογλου]
TTITLE1=Ρούκουνας Κώστας ή Σαμιωτάκης - Το μπαρμπούτι [Παν. Τούντας]
TTITLE2=Μαρσέλος Κώστας ή Νούρος - Μανώλης ο χασικλής [Γ. Δραγάτσης]
TTITLE3=Μπάτης Γιώργος - Οι φυλακές του Ωρωπού [Γ. Μπάτης]
TTITLE4=Ρούκουνας Κώστας ή Σαμιωτάκης - Μαρίκα χασικλού [Βαγγ. Παπάζογλου]
TTITLE5=Μπάτης Γιώργος - Καμηλιέρικο [Γ. Μπάτης]
TTITLE6=Κηρομύτης Στέλιος-Παγιουμτζής Στράτος - Μπαγλαμάδες [παραδοσιακό]
TTITLE7=Μπάτης Γιώργος - Μάγκες καραβοτσακισμένοι [Γ. Μπάτης]
TTITLE8=Βιδάλης Γιώργος - Στους απάνω μαχαλάδες [παραδοσιακό]
TTITLE9=Εσκενάζυ Ρόζα - Οι λαχανάδες [Βαγγ. Παπάζογλου]
TTITLE10=Βαμβακάρης Μάρκος - Αντιλαλούν οι φυλακές [Μ. Βαμβακάρης]
TTITLE11=Πετρόπουλος Χαράλαμπος - Ο λαθρέμπορος [Γ. Καμβύσης]
EXTD=
EXTT0=
EXTT1=
EXTT2=
EXTT3=
EXTT4=
EXTT5=
EXTT6=
EXTT7=
EXTT8=
EXTT9=
EXTT10=
EXTT11=
PLAYORDER=
